<svg width="24" height="24" viewBox="0 0 24 24" fill="none" xmlns="http://www.w3.org/2000/svg">
  <style>
    path.color {
      fill: #7447D1;
    }
    path.colorMag {
      fill: #9370DB;
    }
  </style>
  <path d="M1.67225 17.5142C1.42775 17.3442 1.27966 17.1122 1.228 16.818C1.17633 16.5238 1.22716 16.2461 1.3805 15.9847L5.1615 9.92874C5.36866 9.60558 5.65866 9.42949 6.0315 9.40049C6.40433 9.37149 6.72133 9.49991 6.9825 9.78574L8.8745 11.9917L11.8162 7.19349C12.0276 6.83699 12.3457 6.65674 12.7705 6.65274C13.1952 6.64874 13.5215 6.81866 13.7495 7.16249L14.7685 8.70649C14.9638 9.00983 15.025 9.30258 14.952 9.58474C14.879 9.86708 14.7302 10.0868 14.5055 10.244C14.2808 10.4013 14.0283 10.4784 13.748 10.4752C13.4678 10.4722 13.2142 10.335 12.987 10.0635L12.8537 9.87324L10.006 14.5027C9.79867 14.8259 9.50542 15.0052 9.12625 15.0405C8.74708 15.0758 8.42692 14.9442 8.16575 14.6457L6.268 12.4397L3.3075 17.2032C3.13766 17.4851 2.89 17.6582 2.5645 17.7225C2.23883 17.7868 1.94141 17.7174 1.67225 17.5142ZM17.288 10.2282C17.0435 10.0789 16.8726 9.86233 16.7752 9.57849C16.6779 9.29466 16.7329 8.99316 16.9402 8.67399L20.6982 2.66674C20.8682 2.39758 21.1148 2.22566 21.438 2.15099C21.7612 2.07633 22.0554 2.14266 22.3207 2.34999C22.5652 2.51999 22.7155 2.75108 22.7715 3.04324C22.8275 3.33541 22.7788 3.61208 22.6255 3.87324L18.8482 9.86149C18.6411 10.1807 18.3904 10.3589 18.0962 10.3962C17.8021 10.4336 17.5327 10.3776 17.288 10.2282Z" class="color"/>
  <path d="M16.099 20.6885C14.825 20.6885 13.7416 20.2421 12.8487 19.3492C11.9557 18.4562 11.5092 17.3728 11.5092 16.099C11.5092 14.825 11.9557 13.7406 12.8487 12.8457C13.7416 11.9507 14.825 11.5033 16.099 11.5033C17.3728 11.5033 18.4562 11.9507 19.3492 12.8457C20.2421 13.7406 20.6885 14.825 20.6885 16.099C20.6885 16.5203 20.6332 16.9302 20.5225 17.3285C20.4118 17.7268 20.2478 18.099 20.0305 18.445L22.3647 20.7675C22.5926 20.9913 22.7097 21.2565 22.716 21.563C22.7223 21.8695 22.6116 22.1368 22.3837 22.3648C22.1557 22.5926 21.8853 22.7065 21.5725 22.7065C21.2597 22.7065 20.9893 22.5926 20.7615 22.3648L18.42 20.0365C18.0867 20.2538 17.7218 20.4168 17.3255 20.5255C16.9292 20.6342 16.5203 20.6885 16.099 20.6885ZM16.099 18.4135C16.7472 18.4135 17.295 18.1898 17.7425 17.7425C18.1898 17.295 18.4135 16.7472 18.4135 16.099C18.4135 15.4508 18.1898 14.902 17.7425 14.4525C17.295 14.003 16.7472 13.7782 16.099 13.7782C15.4508 13.7782 14.902 14.003 14.4525 14.4525C14.003 14.902 13.7782 15.4508 13.7782 16.099C13.7782 16.7472 14.003 17.295 14.4525 17.7425C14.902 18.1898 15.4508 18.4135 16.099 18.4135Z" class="colorMag"/>
</svg>
